<?xml version="1.0" standalone="no"?>
<!DOCTYPE svg PUBLIC "-//W3C//DTD SVG 20010904//EN"
 "http://www.w3.org/TR/2001/REC-SVG-20010904/DTD/svg10.dtd">
<svg version="1.0" xmlns="http://www.w3.org/2000/svg"
 width="396.000000pt" height="396.000000pt" viewBox="0 0 396.000000 396.000000"
 preserveAspectRatio="xMidYMid meet">
<metadata>
Created by potrace 1.11, written by Peter Selinger 2001-2013
</metadata>
<g transform="translate(0.000000,396.000000) scale(0.100000,-0.100000)"
fill="#000000" stroke="none">
<path d="M2850 2441 c-89 -91 -134 -219 -134 -381 1 -147 49 -282 133 -368 63
-65 88 -51 30 16 -89 101 -129 302 -99 490 15 88 43 158 90 220 57 74 44 88
-20 23z"/>
<path d="M3480 2477 c0 -8 9 -22 21 -33 61 -55 107 -185 116 -324 10 -166 -24
-304 -98 -402 -21 -29 -39 -56 -39 -60 0 -37 92 57 130 132 45 89 63 165 63
270 1 107 -13 177 -53 265 -40 87 -140 196 -140 152z"/>
<path d="M2472 2430 c-38 -23 -55 -58 -72 -147 l-13 -63 -38 0 c-28 0 -39 -4
-39 -15 0 -10 11 -15 35 -15 19 0 35 -3 35 -7 0 -27 -73 -386 -86 -420 -9 -25
-24 -45 -35 -48 -27 -9 -39 4 -16 16 33 19 16 69 -23 69 -17 0 -40 -32 -40
-54 0 -32 31 -56 72 -56 28 0 42 7 66 34 39 44 58 105 96 301 l32 160 47 3
c33 2 47 7 47 18 0 10 -13 14 -46 14 -38 0 -45 3 -40 18 3 9 10 46 17 82 15
85 24 100 56 100 25 0 25 -1 9 -19 -26 -29 -17 -56 19 -56 23 0 32 6 40 29 8
25 6 31 -18 52 -34 29 -62 30 -105 4z"/>
<path d="M1012 2432 c-33 -10 -32 -26 1 -30 16 -2 27 -9 27 -18 0 -8 -27 -122
-60 -254 -33 -132 -60 -249 -60 -260 0 -14 7 -20 24 -20 28 0 37 19 66 144 11
48 28 104 37 123 22 47 72 83 115 83 59 0 62 -36 18 -173 -16 -52 -30 -104
-30 -116 0 -51 71 -78 118 -45 24 16 62 83 62 109 0 29 -20 15 -36 -25 -17
-42 -60 -84 -75 -74 -15 9 -10 43 21 136 17 49 30 102 30 118 0 89 -79 126
-171 80 l-40 -21 6 23 c42 172 51 218 47 223 -7 7 -71 5 -100 -3z"/>
<path d="M734 2369 c-4 -7 -14 -42 -24 -78 l-16 -66 -52 -3 c-37 -2 -52 -7
-52 -18 0 -10 12 -14 45 -14 25 0 45 -4 45 -9 0 -6 -13 -64 -29 -130 -32 -130
-30 -170 9 -191 28 -15 73 -12 98 6 29 20 82 92 82 111 0 28 -26 11 -49 -33
-14 -25 -38 -52 -54 -61 -26 -13 -31 -13 -45 0 -13 14 -12 27 12 124 51 205
40 183 96 183 38 0 50 4 50 15 0 11 -12 15 -45 15 -25 0 -45 3 -45 6 0 3 7 33
16 66 8 33 13 67 10 74 -6 17 -42 18 -52 3z"/>
<path d="M370 2214 c-95 -41 -143 -111 -144 -209 -2 -125 77 -180 205 -145 35
10 119 74 119 91 0 18 -27 8 -55 -21 -37 -39 -126 -67 -161 -51 -38 17 -55 85
-38 149 6 20 13 22 68 23 81 1 126 18 154 59 26 39 22 64 -14 98 -30 26 -82
29 -134 6z m118 -26 c19 -19 14 -53 -12 -77 -23 -21 -149 -51 -162 -38 -10 10
28 77 58 102 32 27 95 34 116 13z"/>
<path d="M1525 2211 c-84 -39 -135 -120 -135 -214 0 -60 27 -112 70 -135 42
-22 131 -10 186 24 49 30 73 58 61 70 -4 4 -20 -4 -35 -18 -76 -72 -189 -85
-208 -24 -8 24 -8 112 0 125 3 4 38 10 78 13 83 5 129 25 146 63 18 39 15 63
-13 90 -30 31 -91 33 -150 6z m121 -19 c32 -22 19 -74 -23 -95 -15 -8 -56 -18
-91 -22 l-62 -7 10 26 c16 43 41 76 69 91 28 15 79 19 97 7z"/>
<path d="M1807 2212 c-15 -17 -47 -93 -47 -113 0 -5 6 -9 13 -9 8 0 20 19 26
43 16 51 28 67 52 67 27 0 25 -28 -16 -191 -20 -77 -33 -144 -30 -150 10 -15
44 -10 54 9 5 10 19 56 31 102 12 47 26 102 31 123 14 54 64 107 101 107 27 0
28 -1 13 -16 -19 -20 -16 -43 8 -58 21 -13 46 0 58 31 6 16 2 29 -12 47 -27
34 -74 34 -123 1 l-36 -24 -24 24 c-30 30 -76 33 -99 7z"/>
<path d="M3100 2223 c-54 -21 -120 -133 -79 -133 4 0 11 9 14 21 4 11 20 36
37 55 23 26 38 34 64 34 48 0 52 -29 24 -152 -26 -110 -48 -153 -85 -170 -31
-14 -40 -6 -24 20 25 40 -17 78 -51 47 -68 -62 47 -131 117 -71 l28 24 28 -24
c40 -33 95 -32 137 2 32 28 60 73 60 99 0 25 -20 17 -31 -12 -34 -90 -139
-121 -139 -42 0 51 51 236 71 258 23 25 79 31 59 7 -18 -22 -9 -60 16 -64 28
-4 58 31 50 61 -12 48 -88 61 -133 23 l-28 -25 -22 21 c-21 20 -86 32 -113 21z"/>
</g>
</svg>
